<?xml version="1.0" encoding="utf-8" standalone="yes"?>
<!DOCTYPE svg PUBLIC "-//W3C//DTD SVG 1.1//EN" "http://www.w3.org/Graphics/SVG/1.1/DTD/svg11.dtd">
<svg width="747" height="420" viewBox="0 0 747 420" style="fill:none;stroke:none;fill-rule:evenodd;clip-rule:evenodd;stroke-linecap:round;stroke-linejoin:round;stroke-miterlimit:1.5;" version="1.1" xmlns="http://www.w3.org/2000/svg" xmlns:xlink="http://www.w3.org/1999/xlink"><style class="text-font-style fontImports" data-font-family="Shantell Sans">@import url('https://fonts.googleapis.com/css2?family=Shantell+Sans:wght@300..800&amp;display=block');</style><g id="items" style="isolation: isolate"><g id="blend" style="mix-blend-mode: normal"><g id="g-root-cp_1_sign-1_dilf5i4rrdos-fill" data-item-order="-223188" transform="translate(156.33334350585938, 146)"><g id="cp_1_sign-1_dilf5i4rrdos-fill" stroke="none" fill="#ffffff"><g><path d="M 10 52L 28 10L 28 94L 10 52ZM 28 10L 201 10L 201 94L 28 94Z"></path></g></g></g><g id="g-root-cp_pole_g-pole_92rx124rreh2-fill" data-item-order="-223166" transform="translate(345.3333435058594, 122)"><g id="cp_pole_g-pole_92rx124rreh2-fill" stroke="none" fill="#ffffff"><g><path d="M 31 130L 13 130L 13 244L 31 244L 31 243.8971L 24.5502 243.88C 24.5502 243.88 25.3002 237.89 17.7402 236.78C 25.6302 233.53 28.4103 238.56 28.4103 238.56C 28.4103 238.56 27.9944 231.9856 31 226.1996L 31 130ZM 13 243.9182L 24.5 243.9182L 13 243.9182ZM 13 22L 31 22L 31 130L 13 130L 13 22Z"></path></g></g><g id="cp_pole_g-pole_92rx124rreh2-fill" stroke="none" fill="#ffffff"><g><path d="M 10 10L 34 10L 34 22L 10 22L 10 10Z"></path></g></g></g><g id="g-root-cp_pole_plant_1ut1xpy4rrcp5-fill" data-item-order="-223148" transform="translate(313.3333435058594, 331)"><g id="cp_pole_plant_1ut1xpy4rrcp5-fill" stroke="none" fill="#ffffff"><g><path d="M 49.7227 27.78C 57.6127 24.53 60.3927 29.56 60.3927 29.56C 60.3927 29.56 59.4527 14.7 70.6127 10C 67.4427 13.77 66.6927 20.52 68.5527 26C 72.9927 22.89 78.8827 23.56 80.8827 26.67C 74.8152 23.8605 68.7884 30.3838 71.4825 35.0084L 97.7605 35.0084C 97.7605 35.0084 90.3901 46.5205 54.1829 46.5205C 17.9757 46.5205 10 35.0084 10 35.0084L 56.5327 35.0084C 57.0185 30.4711 54.5158 28.4837 49.7227 27.78Z"></path></g></g></g><g id="g-root-cp_2_sign-2_1qd8fli4rrdhf-fill" data-item-order="-223140" transform="translate(367.3333435058594, 182)"><g id="cp_2_sign-2_1qd8fli4rrdhf-fill" stroke="none" fill="#ffffff"><g><path d="M 10 10L 195 10L 195 70L 10 70L 10 10ZM 213 40L 195 10L 195 70L 213 40Z"></path></g></g></g><g id="g-root-tx_shouldif_1hhlfcm4rrea5-fill" data-item-order="0" transform="translate(69.33334350585938, 14)"><g id="tx_shouldif_1hhlfcm4rrea5-fill" stroke="none" fill="#484848"><g><text style="font: bold 25px &quot;Shantell Sans&quot;, cursive; white-space: pre;" font-weight="bold" font-size="25px" font-family="'Shantell Sans', cursive"><tspan x="16.88" y="41.5" dominant-baseline="ideographic">Should I follow the crowd or walk my own </tspan><tspan x="263.5" y="71.5" dominant-baseline="ideographic">path?</tspan></text></g></g></g><g id="g-root-ic_2_zqxvxy4rrdhi-fill" data-item-order="0" transform="translate(180.33334350585938, 170)"></g><g id="g-root-tx_followth_9oty4rx0r3-fill" data-item-order="0" transform="translate(228.33334350585938, 164)"><g id="tx_followth_9oty4rx0r3-fill" stroke="none" fill="#484848"><g><text style="font: 20px &quot;Shantell Sans&quot;, cursive; white-space: pre;" font-size="20px" font-family="'Shantell Sans', cursive"><tspan x="13.86" y="35.5" dominant-baseline="ideographic">Follow the </tspan><tspan x="54.16" y="59.5" dominant-baseline="ideographic">Crowd</tspan></text></g></g></g><g id="g-root-tx_walkalon_qofnqu4ryd55-fill" data-item-order="0" transform="translate(378.3333435058594, 200)"><g id="tx_walkalon_qofnqu4ryd55-fill" stroke="none" fill="#484848"><g><text style="font: 20px &quot;Shantell Sans&quot;, cursive; white-space: pre;" font-size="20px" font-family="'Shantell Sans', cursive"><tspan x="12" y="35.5" dominant-baseline="ideographic">Walk Alone</tspan></text></g></g></g><g id="g-root-ic_rota_1um6prq4rwy6g-fill" data-item-order="0" transform="translate(510.3333435058594, 194)"></g><g id="g-root-cp_1_sign-1_dilf5i4rrdos-stroke" data-item-order="-223188" transform="translate(156.33334350585938, 146)"><g id="cp_1_sign-1_dilf5i4rrdos-stroke" fill="none" stroke-linecap="round" stroke-linejoin="round" stroke-miterlimit="4" stroke="#484848" stroke-width="4"><g><path d="M 28 10C 40 9.6 51.9 9.8 63.9 10C 74.4 10.2 84.9 9.9 95.4 10C 106.8 10.2 118.3 11.8 129.5 10C 141.3 8.2 153.3 9 165.2 10C 177.1 11 189.1 10.6 201 10M 201 94C 182.2 93.6 163.3 95.8 144.5 94C 126.9 92.3 109.2 92.8 91.5 94C 70.4 95.5 49.2 93.5 28 94M 28 94C 22.7 79.7 16.2 65.9 10 52C 17.4 38.7 22.9 24.4 28 10"></path><path d="M 28 10L 201 10M 201 94L 28 94M 28 94L 10 52L 28 10"></path></g></g></g><g id="g-root-cp_pole_g-pole_92rx124rreh2-stroke" data-item-order="-223166" transform="translate(345.3333435058594, 122)"><g id="cp_pole_g-pole_92rx124rreh2-stroke" fill="none" stroke-linecap="round" stroke-linejoin="round" stroke-miterlimit="4" stroke="#484848" stroke-width="4"><g><path d="M 31 226C 31.3 194 31.3 162 31 130M 13 243C 13.8 224.2 14 205.4 13 186.6C 11.9 167.8 13.9 148.8 13 130M 31 130C 30.1 113.1 31.7 96 31 79.1C 30.2 60.1 29.2 40.9 31 22M 13 130C 13.9 110.8 12.1 91.5 13 72.3C 13.7 55.5 12.4 38.8 13 22"></path><path d="M 31 226L 31 130M 13 243L 13 130M 31 130L 31 22M 13 130L 13 22"></path></g></g><g id="cp_pole_g-pole_92rx124rreh2-stroke" fill="none" stroke-linecap="round" stroke-linejoin="round" stroke-miterlimit="4" stroke="#484848" stroke-width="4"><g><path d="M 10 10C 18 10.3 26 10.3 34 10C 33.2 13.9 33.7 18 34 22C 26 22.7 17.9 21.1 10 22C 11.5 18.3 10.9 13.9 10 10"></path><path d="M 10 10L 34 10L 34 22L 10 22L 10 10Z"></path></g></g></g><g id="g-root-cp_pole_plant_1ut1xpy4rrcp5-stroke" data-item-order="-223148" transform="translate(313.3333435058594, 331)"><g id="cp_pole_plant_1ut1xpy4rrcp5-stroke" fill="none" stroke-linecap="round" stroke-linejoin="round" stroke-miterlimit="4" stroke="#484848" stroke-width="4"><g><path d="M 56.6 34.9C 56.5 34.9 57.3 28.5 49.7 27.8C 57.3 23.8 60.4 29.6 60.4 29.6C 60.4 29.6 60.3 16.3 70.6 10C 66.6 12.9 67 20.4 68.6 26C 73.6 23.9 78.5 23.9 80.9 26.7C 77 24 68.2 29 71 34.9M 71 34.9C 80 35.2 89 35 98 34.9M 10 34.9C 25.5 34.2 41 35.8 56.5 34.9"></path><path d="M 56.5502 34.88C 56.5502 34.88 57.3002 28.89 49.7402 27.78C 57.6302 24.53 60.4103 29.56 60.4103 29.56C 60.4103 29.56 59.4702 14.7 70.6302 10C 67.4602 13.77 66.7103 20.52 68.5703 26C 73.0103 22.89 78.9003 23.56 80.9003 26.67C 76.6803 24.44 69.89 28.4682 71 34.9182M 71 34.9182L 98 34.9182M 10 34.9182L 56.5 34.9182"></path></g></g></g><g id="g-root-cp_2_sign-2_1qd8fli4rrdhf-stroke" data-item-order="-223140" transform="translate(367.3333435058594, 182)"><g id="cp_2_sign-2_1qd8fli4rrdhf-stroke" fill="none" stroke-linecap="round" stroke-linejoin="round" stroke-miterlimit="4" stroke="#484848" stroke-width="4"><g><path d="M 195 70C 174.9 69.4 154.8 69.6 134.7 70C 111.9 70.5 89.1 71.8 66.4 70C 47.7 68.5 28.8 70.1 10 70M 10 10C 31.2 11.1 52.4 8.7 73.6 10C 95.6 11.4 117.8 8.8 139.8 10C 158.2 11 176.6 9.9 195 10M 195 10C 201.4 19.7 207 30 213 40C 208 50.5 202.4 61 195 70"></path><path d="M 195 70L 10 70M 10 10L 195 10M 195 10L 213 40L 195 70"></path></g></g></g><g id="g-root-tx_shouldif_1hhlfcm4rrea5-stroke" data-item-order="0" transform="translate(69.33334350585938, 14)"></g><g id="g-root-ic_2_zqxvxy4rrdhi-stroke" data-item-order="0" transform="translate(180.33334350585938, 170)"><g id="ic_2_zqxvxy4rrdhi-stroke" fill="none" stroke-linecap="round" stroke-linejoin="round" stroke-miterlimit="4" stroke="#484848" stroke-width="2"><g><path d="M 22.450001 37.599998C 21.4 36.25 20.200001 34.900002 19.299999 33.25C 20.049999 32.349998 20.049999 31 20.65 29.799999C 22.150002 32.950001 25.599998 33.700001 28.75 34.75C 29.950001 34.449997 31.150002 33.700001 31 32.5C 30.849998 31.299999 29.950001 30.099998 28.75 30.25C 24.700001 31 22.599998 23.650002 22.599998 23.650002C 22.599998 22.75 21.549999 21.700001 20.65 22C 19.75 22.299999 18.85 22.599998 18.4 23.349998C 15.1 29.200001 13 35.800003 10.9 42.099998C 10.6 43 10.6 43.900002 11.2 44.349998C 11.8 44.949997 12.55 45.25 13.3 45.25C 14.2 45.25 14.8 44.5 15.1 43.900002C 16 41.949997 16.6 40 17.35 38.050003C 18.1 39.849998 19 41.5 19.75 43.300003C 19.75 44.050003 20.35 44.349998 20.799999 44.949997M 26.200001 37.75C 25.900002 39.400002 25 40.75 24.400002 42.099998C 23.950001 42.849998 24.099998 43.75 24.549999 44.349998C 25.150002 45.099998 25.900002 45.400002 26.650002 45.25C 27.549999 45.25 28.150002 44.650002 28.450001 43.900002C 29.650002 41.349998 30.25 38.650002 31.599998 36.25C 34.449997 37.150002 36.699997 40.449997 36.25 43.300003C 36.849998 44.349998 37.449997 45.25 38.800003 45.25C 40 45.25 40.75 43.900002 40.599998 42.699997C 39.849998 37.900002 35.349998 34 33.400002 31.900002C 33.849998 30.700001 34.599998 29.650002 34.900002 28.450001C 36.699997 31.299999 39.849998 32.349998 43 33.400002C 44.199997 33.400002 45.400002 32.349998 45.25 31.150002C 45.099998 29.799999 44.199997 28.900002 43 28.900002C 38.800003 28.900002 37 22.299999 36.849998 22.299999C 36.699997 21.4 35.800003 20.65 34.900002 20.65C 34 20.65 32.650002 21.1 32.650002 22C 32.5 23.799999 31.150002 25.450001 30.549999 27.099998M 34.75 14.5C 34.900002 16.6 36.550003 18.85 38.5 18.25C 40.449997 17.5 41.5 16.450001 42.25 14.5C 43 12.55 40.599998 10.45 38.5 10.75C 36.400002 11.05 34 12.55 34.75 14.5M 21.25 16C 20.65 17.950001 22.900002 19.6 25 19.75C 27.099998 19.75 29.200001 17.950001 28.75 16C 28.299999 14.05 26.950001 12.85 25 12.25C 23.049999 11.65 21.25 13.9 21.25 16M 22.508499 37.664501C 21.635134 36.082329 20.556273 34.622665 19.300001 33.323502L 20.678499 29.873499C 22.349173 32.781033 25.399038 34.62365 28.749998 34.75C 29.992641 34.75 31 33.742641 31 32.5C 31 31.25736 29.992641 30.25 28.75 30.25C 24.622 30.25 22.688499 23.719 22.6705 23.657499C 22.415257 22.725464 21.593372 22.060503 20.628588 22.005451C 19.663803 21.950397 18.77161 22.51755 18.412001 23.414499L 10.912 42.164501C 10.596738 42.914181 10.71057 43.775642 11.209737 44.417702C 11.708902 45.059765 12.515699 45.382484 13.319966 45.261795C 14.124233 45.141106 14.800773 44.595795 15.0895 43.835503L 17.408501 38.037998C 18.620119 39.575962 19.432266 41.389893 19.772499 43.318001C 19.866798 43.981205 20.251699 44.567902 20.8225 44.918503M 26.131001 37.802498L 24.330999 42.140499C 24.007368 42.886459 24.111399 43.748993 24.603111 44.39661C 25.094824 45.044228 25.897701 45.376156 26.703182 45.264824C 27.508659 45.153488 28.191397 44.616219 28.489 43.859501L 31.66 36.197502C 33.952312 37.970459 35.552212 40.489433 36.182503 43.318001C 36.358131 44.548218 37.497787 45.40313 38.728001 45.227501C 39.958218 45.051876 40.813129 43.912216 40.637501 42.682003C 39.953499 37.8955 35.160999 34.091499 33.407501 31.973499L 34.875999 28.426001C 36.546741 31.366575 39.620296 33.23307 43 33.359501C 44.242641 33.359501 45.25 32.352142 45.25 31.109501C 45.25 29.866859 44.242641 28.859501 43 28.859501C 38.871998 28.859501 36.938499 22.327 36.920502 22.267C 36.666885 21.339001 35.851326 20.674911 34.891186 20.614586C 33.931046 20.55426 33.038776 21.111042 32.671001 22L 30.560499 27.099998M 34.75 14.5C 34.75 16.571068 36.428932 18.25 38.5 18.25C 40.571068 18.25 42.25 16.571068 42.25 14.5C 42.25 12.428932 40.571068 10.75 38.5 10.75C 36.428932 10.75 34.75 12.428932 34.75 14.5M 21.25 16C 21.25 18.071068 22.928932 19.75 25 19.75C 27.071068 19.75 28.75 18.071068 28.75 16C 28.75 13.928932 27.071068 12.25 25 12.25C 22.928932 12.25 21.25 13.928932 21.25 16"></path></g></g></g><g id="g-root-tx_followth_9oty4rx0r3-stroke" data-item-order="0" transform="translate(228.33334350585938, 164)"></g><g id="g-root-tx_walkalon_qofnqu4ryd55-stroke" data-item-order="0" transform="translate(378.3333435058594, 200)"></g><g id="g-root-ic_rota_1um6prq4rwy6g-stroke" data-item-order="0" transform="translate(510.3333435058594, 194)"><g id="ic_rota_1um6prq4rwy6g-stroke" fill="none" stroke-linecap="round" stroke-linejoin="round" stroke-miterlimit="4" stroke="#484848" stroke-width="2"><g><path d="M 25 42.099998C 16.9 41.800003 10.45 39.099998 10.75 36.25C 10.9 34 14.05 30.400002 19 31.150002M 37 31.150002C 41.349998 33.849998 46 34.150002 45.25 36.25C 44.199997 39.099998 38.349998 42.099998 29.5 42.099998M 21.25 37.150002C 22.299999 38.949997 23.349998 40.900002 25 42.099998C 23.5 43.449997 21.1 43.75 19.75 45.099998M 23.950001 14.95C 23.799999 17.200001 25.75 18.700001 28 19.15C 30.25 19.450001 31.900002 17.200001 32.200001 14.95C 32.349998 12.7 30.099998 11.65 28 10.9C 25.900002 10 23.049999 12.85 23.950001 14.95M 33.25 25.900002C 33.700001 22.900002 30.849998 20.950001 28 20.65C 25.150002 20.200001 23.349998 22.900002 22.75 25.900002C 22.450001 27.25 22.299999 28.900002 22.75 30.400002C 23.5 30.400002 24.400002 30.099998 25.150002 30.400002C 25 32.799999 25.75 35.349998 25.75 37.900002C 27.099998 37.300003 28.75 37.75 30.25 37.900002C 30.400002 35.349998 31.150002 32.799999 30.849998 30.400002C 31.599998 30.25 32.5 30.400002 33.25 30.400002C 33.700001 28.900002 33.099998 27.400002 33.25 25.900002M 24.932499 42.099998C 16.869999 41.5975 10.75 39.1465 10.75 36.195999C 10.75 34.031502 14.05 32.1325 18.988001 31.077999M 37.071999 31.093C 41.98 32.150501 45.25 34.038998 45.25 36.193001C 45.25 39.331001 38.326 41.904999 29.5 42.168999M 21.274 37.213001L 24.932499 42.101498L 19.75 45.172001M 23.875 14.953C 23.875 17.231174 25.721827 19.077999 28 19.077999C 30.278175 19.077999 32.125 17.231174 32.125 14.953C 32.125 12.674826 30.278175 10.828 28 10.828C 25.721827 10.828 23.875 12.674826 23.875 14.953ZM 33.25 25.827999C 33.25 22.928507 30.899494 20.578001 28.000002 20.578001C 25.100506 20.578001 22.750002 22.928507 22.750002 25.827999L 22.75 30.327999L 25.1245 30.327999L 25.75 37.827999L 30.25 37.827999L 30.8755 30.327999L 33.25 30.327999Z"></path></g></g></g></g></g></svg>